# xmcd
#
# Track frame offsets: 
#        150
#        14212
#        29918
#        52719
#        70089
#        88401
#        110533
#        129461
#        153322
#        171985
#        191455
#        217590
#        254786
#
# Disc length: 3583 seconds
#
# Revision: 3
# Processed by: cddbd v1.5.2PL0 Copyright (c) Steve Scherf et al.
# Submitted via: ExactAudioCopyFreeDBPlugin 1.0
#
DISCID=bb0dfd0d
DTITLE=Dżem - Być albo mieć
DYEAR=2000
DGENRE=Blues
TTITLE0=Być albo mieć
TTITLE1=Krewny Judasza
TTITLE2=Kruka głos
TTITLE3=Chcę Ci coś powiedzieć
TTITLE4=Chociaż raz, jeden raz
TTITLE5=Niebo na wyciągnięcie ręki
TTITLE6=Za plecami
TTITLE7=Popiołu smak
TTITLE8=Ukryj mnie
TTITLE9=Zakładnik
TTITLE10=Geronimo
TTITLE11=Na swoim brzegu
TTITLE12=Sciezka multimedialna
EXTD=
EXTT0=
EXTT1=
EXTT2=
EXTT3=
EXTT4=
EXTT5=
EXTT6=
EXTT7=
EXTT8=
EXTT9=
EXTT10=
EXTT11=
EXTT12=
PLAYORDER=
